<?xml version="1.0" encoding="utf-8"?>
<svg version="1.1" id="Layer_1" xmlns="http://www.w3.org/2000/svg" xmlns:xlink="http://www.w3.org/1999/xlink" x="0px" y="0px"
	 viewBox="0 0 64 64" height="64" width="64" style="enable-background:new 0 0 64 64;" preserveAspectRatio="xMidYMid meet" xml:space="preserve">
<g>
	<path d="M43.5,26.6c1.7-0.8,3.2-1.9,4.5-3.1l-2.5-3.3c-2.1,2.3-5.3,3.7-8.8,3.7c-1.7,0-3.3,0.4-4.7,1.2c-1.3-0.8-2.9-1.2-4.7-1.2
		c-3.5,0-6.5-1.5-8.8-3.7L16,23.5c1.3,1.3,2.8,2.3,4.5,3.1c-1.9,1.9-3.1,4.4-3.1,7.2c0,5.5,4.4,10,10,10c1.7,0,3.3-0.4,4.7-1.2
		c1.3,0.8,2.9,1.2,4.7,1.2c5.5,0,10-4.4,10-10C46.7,31,45.5,28.5,43.5,26.6 M36.7,39.5c-1.9,0-3.6-0.9-4.7-2.4
		c-1.1,1.5-2.8,2.4-4.7,2.4c-3.2,0-5.7-2.5-5.7-5.7c0-3.2,2.5-5.7,5.7-5.7c1.9,0,3.6,0.9,4.7,2.4c1.1-1.5,2.8-2.4,4.7-2.4
		c3.2,0,5.7,2.5,5.7,5.7C42.4,37,39.9,39.5,36.7,39.5"/>
	<path d="M27.3,31.4c-1.3,0-2.4,1.1-2.4,2.4s1.1,2.4,2.4,2.4c1.3,0,2.4-1.1,2.4-2.4S28.7,31.4,27.3,31.4"/>
	<path d="M36.7,31.4c-1.3,0-2.4,1.1-2.4,2.4s1.1,2.4,2.4,2.4c1.3,0,2.4-1.1,2.4-2.4S38,31.4,36.7,31.4"/>
</g>
</svg>
