<?xml version="1.0" encoding="utf-8"?>
<svg version="1.1" id="Layer_1" xmlns="http://www.w3.org/2000/svg" xmlns:xlink="http://www.w3.org/1999/xlink" x="0px" y="0px"
	 viewBox="0 0 128 128" height="128" width="128" style="enable-background:new 0 0 128 128;" preserveAspectRatio="xMidYMid meet" xml:space="preserve">
<g>
	<path d="M90.9,51.3c4.1-1.9,7.5-4.4,10.6-7.2l-5.9-7.8c-5,5.3-12.5,8.7-20.6,8.7c-4.1,0-7.8,0.9-10.9,2.8
		c-3.1-1.9-6.9-2.8-10.9-2.8c-8.1,0-15.3-3.4-20.6-8.8l-5.9,7.8c3.1,3.1,6.6,5.3,10.6,7.2c-4.4,4.4-7.2,10.3-7.2,16.9
		c0,12.8,10.3,23.4,23.4,23.4c4.1,0,7.8-0.9,10.9-2.8c3.1,1.9,6.9,2.8,10.9,2.8c12.8,0,23.4-10.3,23.4-23.4
		C98.4,61.7,95.6,55.7,90.9,51.3 M74.9,81.7c-4.4,0-8.4-2.2-10.9-5.6c-2.5,3.4-6.6,5.6-10.9,5.6c-7.5,0-13.4-5.9-13.4-13.4
		s5.9-13.4,13.4-13.4c4.4,0,8.4,2.2,10.9,5.6c2.5-3.4,6.6-5.6,10.9-5.6c7.5,0,13.4,5.9,13.4,13.4S82.4,81.7,74.9,81.7"/>
	<path d="M53.1,62.6c-3.1,0-5.6,2.5-5.6,5.6s2.5,5.6,5.6,5.6s5.6-2.5,5.6-5.6S56.2,62.6,53.1,62.6"/>
	<path d="M74.9,62.6c-3.1,0-5.6,2.5-5.6,5.6s2.5,5.6,5.6,5.6s5.6-2.5,5.6-5.6S78.1,62.6,74.9,62.6"/>
</g>
</svg>
