<?xml version="1.0" encoding="utf-8"?>
<svg version="1.1" id="Layer_1" xmlns="http://www.w3.org/2000/svg" xmlns:xlink="http://www.w3.org/1999/xlink" x="0px" y="0px"
	 viewBox="0 0 48 48" height="48" width="48" style="enable-background:new 0 0 48 48;" preserveAspectRatio="xMidYMid meet" xml:space="preserve">
<g>
	<path d="M32.6,20c1.3-0.6,2.4-1.4,3.4-2.3l-1.9-2.5c-1.6,1.7-4,2.8-6.6,2.8c-1.3,0-2.5,0.3-3.5,0.9c-1-0.6-2.2-0.9-3.5-0.9
		c-2.6,0-4.9-1.1-6.6-2.8L12,17.7c1,1,2.1,1.7,3.4,2.3c-1.4,1.4-2.3,3.3-2.3,5.4c0,4.1,3.3,7.5,7.5,7.5c1.3,0,2.5-0.3,3.5-0.9
		c1,0.6,2.2,0.9,3.5,0.9c4.1,0,7.5-3.3,7.5-7.5C35,23.3,34.1,21.4,32.6,20 M27.5,29.7c-1.4,0-2.7-0.7-3.5-1.8
		c-0.8,1.1-2.1,1.8-3.5,1.8c-2.4,0-4.3-1.9-4.3-4.3c0-2.4,1.9-4.3,4.3-4.3c1.4,0,2.7,0.7,3.5,1.8c0.8-1.1,2.1-1.8,3.5-1.8
		c2.4,0,4.3,1.9,4.3,4.3C31.8,27.8,29.9,29.7,27.5,29.7"/>
	<path d="M20.5,23.6c-1,0-1.8,0.8-1.8,1.8c0,1,0.8,1.8,1.8,1.8c1,0,1.8-0.8,1.8-1.8S21.5,23.6,20.5,23.6"/>
	<path d="M27.5,23.6c-1,0-1.8,0.8-1.8,1.8c0,1,0.8,1.8,1.8,1.8c1,0,1.8-0.8,1.8-1.8S28.5,23.6,27.5,23.6"/>
</g>
</svg>
