<?xml version="1.0" encoding="utf-8"?>
<svg version="1.1" id="Layer_1" xmlns="http://www.w3.org/2000/svg" xmlns:xlink="http://www.w3.org/1999/xlink" x="0px" y="0px"
	 viewBox="0 0 24 17.7" style="enable-background:new 0 0 24 17.7;" preserveAspectRatio="xMidYMid meet" xml:space="preserve">
<style type="text/css">
	.st0{fill:#FFFFFF;}
</style>
<g>
	<path class="st0" d="M20.6,4.8C21.9,4.2,23,3.4,24,2.5L22.1,0c-1.6,1.7-4,2.8-6.6,2.8c-1.3,0-2.5,0.3-3.5,0.9
		c-1-0.6-2.2-0.9-3.5-0.9C5.9,2.8,3.6,1.7,1.9,0L0,2.5c1,1,2.1,1.7,3.4,2.3C2,6.2,1.1,8.1,1.1,10.2c0,4.1,3.3,7.5,7.5,7.5
		c1.3,0,2.5-0.3,3.5-0.9c1,0.6,2.2,0.9,3.5,0.9c4.1,0,7.5-3.3,7.5-7.5C23,8.1,22.1,6.2,20.6,4.8 M15.5,14.5c-1.4,0-2.7-0.7-3.5-1.8
		c-0.8,1.1-2.1,1.8-3.5,1.8c-2.4,0-4.3-1.9-4.3-4.3s1.9-4.3,4.3-4.3c1.4,0,2.7,0.7,3.5,1.8c0.8-1.1,2.1-1.8,3.5-1.8
		c2.4,0,4.3,1.9,4.3,4.3S17.9,14.5,15.5,14.5"/>
	<path class="st0" d="M8.5,8.4c-1,0-1.8,0.8-1.8,1.8S7.5,12,8.5,12s1.8-0.8,1.8-1.8S9.5,8.4,8.5,8.4"/>
	<path class="st0" d="M15.5,8.4c-1,0-1.8,0.8-1.8,1.8s0.8,1.8,1.8,1.8s1.8-0.8,1.8-1.8S16.5,8.4,15.5,8.4"/>
</g>
</svg>
